<?xml version="1.0" encoding="UTF-8"?>
<svg xmlns="http://www.w3.org/2000/svg" xmlns:xlink="http://www.w3.org/1999/xlink" width="24pt" height="24pt" viewBox="0 0 24 24" version="1.1">
<g id="surface7093860">
<path style=" stroke:none;fill-rule:nonzero;fill:rgb(60.392157%,62.745098%,65.098039%);fill-opacity:1;" d="M 10.25 3 C 6.257812 3 3 6.257812 3 10.25 C 3 14.242188 6.257812 17.5 10.25 17.5 C 11.886719 17.5 13.394531 16.945312 14.609375 16.023438 L 19.292969 20.707031 C 19.542969 20.96875 19.917969 21.074219 20.265625 20.980469 C 20.617188 20.890625 20.890625 20.617188 20.980469 20.265625 C 21.074219 19.917969 20.96875 19.542969 20.707031 19.292969 L 16.027344 14.609375 C 16.945312 13.394531 17.5 11.886719 17.5 10.25 C 17.5 6.257812 14.242188 3 10.25 3 Z M 10.25 5 C 13.160156 5 15.5 7.339844 15.5 10.25 C 15.5 11.648438 14.957031 12.910156 14.074219 13.847656 C 13.988281 13.910156 13.914062 13.988281 13.851562 14.070312 C 12.910156 14.957031 11.648438 15.5 10.25 15.5 C 7.339844 15.5 5 13.160156 5 10.25 C 5 7.339844 7.339844 5 10.25 5 Z M 10.25 5 "/>
</g>
</svg>
